<svg id="visual" viewBox="0 0 900 600" width="900" height="600" xmlns="http://www.w3.org/2000/svg" xmlns:xlink="http://www.w3.org/1999/xlink" version="1.1"><rect x="0" y="0" width="900" height="600" fill="#ffffff"></rect><path d="M0 468L21.5 472.7C43 477.3 86 486.7 128.8 480C171.7 473.3 214.3 450.7 257.2 432.3C300 414 343 400 385.8 391.3C428.7 382.7 471.3 379.3 514.2 393.7C557 408 600 440 642.8 446.8C685.7 453.7 728.3 435.3 771.2 436.2C814 437 857 457 878.5 467L900 477L900 601L878.5 601C857 601 814 601 771.2 601C728.3 601 685.7 601 642.8 601C600 601 557 601 514.2 601C471.3 601 428.7 601 385.8 601C343 601 300 601 257.2 601C214.3 601 171.7 601 128.8 601C86 601 43 601 21.5 601L0 601Z" fill="#4f46e5"></path><path d="M0 504L21.5 508C43 512 86 520 128.8 512.2C171.7 504.3 214.3 480.7 257.2 469.2C300 457.7 343 458.3 385.8 471C428.7 483.7 471.3 508.3 514.2 516.2C557 524 600 515 642.8 516.5C685.7 518 728.3 530 771.2 537.8C814 545.7 857 549.3 878.5 551.2L900 553L900 601L878.5 601C857 601 814 601 771.2 601C728.3 601 685.7 601 642.8 601C600 601 557 601 514.2 601C471.3 601 428.7 601 385.8 601C343 601 300 601 257.2 601C214.3 601 171.7 601 128.8 601C86 601 43 601 21.5 601L0 601Z" fill="#ffffff"></path></svg>